<?xml version="1.0" encoding="utf-8" standalone="no"?>
<!DOCTYPE svg PUBLIC "-//W3C//DTD SVG 1.1//EN"
  "http://www.w3.org/Graphics/SVG/1.1/DTD/svg11.dtd">
<svg xmlns:xlink="http://www.w3.org/1999/xlink" width="695.245pt" height="551.499375pt" viewBox="0 0 695.245 551.499375" xmlns="http://www.w3.org/2000/svg" version="1.1">
 <metadata>
  <rdf:RDF xmlns:dc="http://purl.org/dc/elements/1.1/" xmlns:cc="http://creativecommons.org/ns#" xmlns:rdf="http://www.w3.org/1999/02/22-rdf-syntax-ns#">
   <cc:Work>
    <dc:type rdf:resource="http://purl.org/dc/dcmitype/StillImage"/>
    <dc:date>2025-09-09T10:51:04.705909</dc:date>
    <dc:format>image/svg+xml</dc:format>
    <dc:creator>
     <cc:Agent>
      <dc:title>Matplotlib v3.10.3, https://matplotlib.org/</dc:title>
     </cc:Agent>
    </dc:creator>
   </cc:Work>
  </rdf:RDF>
 </metadata>
 <defs>
  <style type="text/css">*{stroke-linejoin: round; stroke-linecap: butt}</style>
 </defs>
 <g id="figure_1">
  <g id="patch_1">
   <path d="M 0 551.499375 
L 695.245 551.499375 
L 695.245 0 
L 0 0 
z
" style="fill: #ffffff"/>
  </g>
  <g id="axes_1">
   <g id="patch_2">
    <path d="M 162.75 544.299375 
L 688.045 544.299375 
L 688.045 27.759375 
L 162.75 27.759375 
z
" style="fill: #ffffff"/>
   </g>
   <g id="matplotlib.axis_1"/>
   <g id="matplotlib.axis_2">
    <g id="ytick_1">
     <g id="line2d_1"/>
     <g id="text_1">
      <!-- Organizations: 122 -->
      <g style="fill: #262626" transform="translate(16.1125 494.259081) scale(0.16 -0.16)">
       <defs>
        <path id="Arial-BoldMT-4f" d="M 278 2263 
Q 278 2963 488 3438 
Q 644 3788 914 4066 
Q 1184 4344 1506 4478 
Q 1934 4659 2494 4659 
Q 3506 4659 4114 4031 
Q 4722 3403 4722 2284 
Q 4722 1175 4119 548 
Q 3516 -78 2506 -78 
Q 1484 -78 881 545 
Q 278 1169 278 2263 
z
M 1231 2294 
Q 1231 1516 1590 1114 
Q 1950 713 2503 713 
Q 3056 713 3411 1111 
Q 3766 1509 3766 2306 
Q 3766 3094 3420 3481 
Q 3075 3869 2503 3869 
Q 1931 3869 1581 3476 
Q 1231 3084 1231 2294 
z
" transform="scale(0.015625)"/>
        <path id="Arial-BoldMT-72" d="M 1300 0 
L 422 0 
L 422 3319 
L 1238 3319 
L 1238 2847 
Q 1447 3181 1614 3287 
Q 1781 3394 1994 3394 
Q 2294 3394 2572 3228 
L 2300 2463 
Q 2078 2606 1888 2606 
Q 1703 2606 1575 2504 
Q 1447 2403 1373 2137 
Q 1300 1872 1300 1025 
L 1300 0 
z
" transform="scale(0.015625)"/>
        <path id="Arial-BoldMT-67" d="M 378 -219 
L 1381 -341 
Q 1406 -516 1497 -581 
Q 1622 -675 1891 -675 
Q 2234 -675 2406 -572 
Q 2522 -503 2581 -350 
Q 2622 -241 2622 53 
L 2622 538 
Q 2228 0 1628 0 
Q 959 0 569 566 
Q 263 1013 263 1678 
Q 263 2513 664 2953 
Q 1066 3394 1663 3394 
Q 2278 3394 2678 2853 
L 2678 3319 
L 3500 3319 
L 3500 341 
Q 3500 -247 3403 -537 
Q 3306 -828 3131 -993 
Q 2956 -1159 2664 -1253 
Q 2372 -1347 1925 -1347 
Q 1081 -1347 728 -1058 
Q 375 -769 375 -325 
Q 375 -281 378 -219 
z
M 1163 1728 
Q 1163 1200 1367 954 
Q 1572 709 1872 709 
Q 2194 709 2416 961 
Q 2638 1213 2638 1706 
Q 2638 2222 2425 2472 
Q 2213 2722 1888 2722 
Q 1572 2722 1367 2476 
Q 1163 2231 1163 1728 
z
" transform="scale(0.015625)"/>
        <path id="Arial-BoldMT-61" d="M 1116 2306 
L 319 2450 
Q 453 2931 781 3162 
Q 1109 3394 1756 3394 
Q 2344 3394 2631 3255 
Q 2919 3116 3036 2902 
Q 3153 2688 3153 2116 
L 3144 1091 
Q 3144 653 3186 445 
Q 3228 238 3344 0 
L 2475 0 
Q 2441 88 2391 259 
Q 2369 338 2359 363 
Q 2134 144 1878 34 
Q 1622 -75 1331 -75 
Q 819 -75 523 203 
Q 228 481 228 906 
Q 228 1188 362 1408 
Q 497 1628 739 1745 
Q 981 1863 1438 1950 
Q 2053 2066 2291 2166 
L 2291 2253 
Q 2291 2506 2166 2614 
Q 2041 2722 1694 2722 
Q 1459 2722 1328 2630 
Q 1197 2538 1116 2306 
z
M 2291 1594 
Q 2122 1538 1756 1459 
Q 1391 1381 1278 1306 
Q 1106 1184 1106 997 
Q 1106 813 1243 678 
Q 1381 544 1594 544 
Q 1831 544 2047 700 
Q 2206 819 2256 991 
Q 2291 1103 2291 1419 
L 2291 1594 
z
" transform="scale(0.015625)"/>
        <path id="Arial-BoldMT-6e" d="M 3478 0 
L 2600 0 
L 2600 1694 
Q 2600 2231 2544 2389 
Q 2488 2547 2361 2634 
Q 2234 2722 2056 2722 
Q 1828 2722 1647 2597 
Q 1466 2472 1398 2265 
Q 1331 2059 1331 1503 
L 1331 0 
L 453 0 
L 453 3319 
L 1269 3319 
L 1269 2831 
Q 1703 3394 2363 3394 
Q 2653 3394 2893 3289 
Q 3134 3184 3257 3021 
Q 3381 2859 3429 2653 
Q 3478 2447 3478 2063 
L 3478 0 
z
" transform="scale(0.015625)"/>
        <path id="Arial-BoldMT-69" d="M 459 3769 
L 459 4581 
L 1338 4581 
L 1338 3769 
L 459 3769 
z
M 459 0 
L 459 3319 
L 1338 3319 
L 1338 0 
L 459 0 
z
" transform="scale(0.015625)"/>
        <path id="Arial-BoldMT-7a" d="M 106 0 
L 106 684 
L 1350 2113 
Q 1656 2463 1803 2609 
Q 1650 2600 1400 2597 
L 228 2591 
L 228 3319 
L 2972 3319 
L 2972 2697 
L 1703 1234 
L 1256 750 
Q 1622 772 1709 772 
L 3069 772 
L 3069 0 
L 106 0 
z
" transform="scale(0.015625)"/>
        <path id="Arial-BoldMT-74" d="M 1981 3319 
L 1981 2619 
L 1381 2619 
L 1381 1281 
Q 1381 875 1398 808 
Q 1416 741 1477 697 
Q 1538 653 1625 653 
Q 1747 653 1978 738 
L 2053 56 
Q 1747 -75 1359 -75 
Q 1122 -75 931 4 
Q 741 84 652 211 
Q 563 338 528 553 
Q 500 706 500 1172 
L 500 2619 
L 97 2619 
L 97 3319 
L 500 3319 
L 500 3978 
L 1381 4491 
L 1381 3319 
L 1981 3319 
z
" transform="scale(0.015625)"/>
        <path id="Arial-BoldMT-6f" d="M 256 1706 
Q 256 2144 472 2553 
Q 688 2963 1083 3178 
Q 1478 3394 1966 3394 
Q 2719 3394 3200 2905 
Q 3681 2416 3681 1669 
Q 3681 916 3195 420 
Q 2709 -75 1972 -75 
Q 1516 -75 1102 131 
Q 688 338 472 736 
Q 256 1134 256 1706 
z
M 1156 1659 
Q 1156 1166 1390 903 
Q 1625 641 1969 641 
Q 2313 641 2545 903 
Q 2778 1166 2778 1666 
Q 2778 2153 2545 2415 
Q 2313 2678 1969 2678 
Q 1625 2678 1390 2415 
Q 1156 2153 1156 1659 
z
" transform="scale(0.015625)"/>
        <path id="Arial-BoldMT-73" d="M 150 947 
L 1031 1081 
Q 1088 825 1259 692 
Q 1431 559 1741 559 
Q 2081 559 2253 684 
Q 2369 772 2369 919 
Q 2369 1019 2306 1084 
Q 2241 1147 2013 1200 
Q 950 1434 666 1628 
Q 272 1897 272 2375 
Q 272 2806 612 3100 
Q 953 3394 1669 3394 
Q 2350 3394 2681 3172 
Q 3013 2950 3138 2516 
L 2309 2363 
Q 2256 2556 2107 2659 
Q 1959 2763 1684 2763 
Q 1338 2763 1188 2666 
Q 1088 2597 1088 2488 
Q 1088 2394 1175 2328 
Q 1294 2241 1995 2081 
Q 2697 1922 2975 1691 
Q 3250 1456 3250 1038 
Q 3250 581 2869 253 
Q 2488 -75 1741 -75 
Q 1063 -75 667 200 
Q 272 475 150 947 
z
" transform="scale(0.015625)"/>
        <path id="Arial-BoldMT-3a" d="M 628 2441 
L 628 3319 
L 1506 3319 
L 1506 2441 
L 628 2441 
z
M 628 0 
L 628 878 
L 1506 878 
L 1506 0 
L 628 0 
z
" transform="scale(0.015625)"/>
        <path id="Arial-BoldMT-20" transform="scale(0.015625)"/>
        <path id="Arial-BoldMT-31" d="M 2519 0 
L 1641 0 
L 1641 3309 
Q 1159 2859 506 2644 
L 506 3441 
Q 850 3553 1253 3867 
Q 1656 4181 1806 4600 
L 2519 4600 
L 2519 0 
z
" transform="scale(0.015625)"/>
        <path id="Arial-BoldMT-32" d="M 3238 816 
L 3238 0 
L 159 0 
Q 209 463 459 877 
Q 709 1291 1447 1975 
Q 2041 2528 2175 2725 
Q 2356 2997 2356 3263 
Q 2356 3556 2198 3714 
Q 2041 3872 1763 3872 
Q 1488 3872 1325 3706 
Q 1163 3541 1138 3156 
L 263 3244 
Q 341 3969 753 4284 
Q 1166 4600 1784 4600 
Q 2463 4600 2850 4234 
Q 3238 3869 3238 3325 
Q 3238 3016 3127 2736 
Q 3016 2456 2775 2150 
Q 2616 1947 2200 1565 
Q 1784 1184 1673 1059 
Q 1563 934 1494 816 
L 3238 816 
z
" transform="scale(0.015625)"/>
       </defs>
       <use xlink:href="#Arial-BoldMT-4f"/>
       <use xlink:href="#Arial-BoldMT-72" transform="translate(77.783203 0)"/>
       <use xlink:href="#Arial-BoldMT-67" transform="translate(116.699219 0)"/>
       <use xlink:href="#Arial-BoldMT-61" transform="translate(177.783203 0)"/>
       <use xlink:href="#Arial-BoldMT-6e" transform="translate(233.398438 0)"/>
       <use xlink:href="#Arial-BoldMT-69" transform="translate(294.482422 0)"/>
       <use xlink:href="#Arial-BoldMT-7a" transform="translate(322.265625 0)"/>
       <use xlink:href="#Arial-BoldMT-61" transform="translate(372.265625 0)"/>
       <use xlink:href="#Arial-BoldMT-74" transform="translate(427.880859 0)"/>
       <use xlink:href="#Arial-BoldMT-69" transform="translate(461.181641 0)"/>
       <use xlink:href="#Arial-BoldMT-6f" transform="translate(488.964844 0)"/>
       <use xlink:href="#Arial-BoldMT-6e" transform="translate(550.048828 0)"/>
       <use xlink:href="#Arial-BoldMT-73" transform="translate(611.132812 0)"/>
       <use xlink:href="#Arial-BoldMT-3a" transform="translate(666.748047 0)"/>
       <use xlink:href="#Arial-BoldMT-20" transform="translate(700.048828 0)"/>
       <use xlink:href="#Arial-BoldMT-31" transform="translate(727.832031 0)"/>
       <use xlink:href="#Arial-BoldMT-32" transform="translate(783.447266 0)"/>
       <use xlink:href="#Arial-BoldMT-32" transform="translate(839.0625 0)"/>
      </g>
     </g>
    </g>
    <g id="ytick_2">
     <g id="line2d_2"/>
     <g id="text_2">
      <!-- Connections: 201 -->
      <g style="fill: #262626" transform="translate(25.9025 413.199199) scale(0.16 -0.16)">
       <defs>
        <path id="Arial-BoldMT-43" d="M 3397 1684 
L 4294 1400 
Q 4088 650 3608 286 
Q 3128 -78 2391 -78 
Q 1478 -78 890 545 
Q 303 1169 303 2250 
Q 303 3394 893 4026 
Q 1484 4659 2447 4659 
Q 3288 4659 3813 4163 
Q 4125 3869 4281 3319 
L 3366 3100 
Q 3284 3456 3026 3662 
Q 2769 3869 2400 3869 
Q 1891 3869 1573 3503 
Q 1256 3138 1256 2319 
Q 1256 1450 1568 1081 
Q 1881 713 2381 713 
Q 2750 713 3015 947 
Q 3281 1181 3397 1684 
z
" transform="scale(0.015625)"/>
        <path id="Arial-BoldMT-65" d="M 2381 1056 
L 3256 909 
Q 3088 428 2723 176 
Q 2359 -75 1813 -75 
Q 947 -75 531 491 
Q 203 944 203 1634 
Q 203 2459 634 2926 
Q 1066 3394 1725 3394 
Q 2466 3394 2894 2905 
Q 3322 2416 3303 1406 
L 1103 1406 
Q 1113 1016 1316 798 
Q 1519 581 1822 581 
Q 2028 581 2168 693 
Q 2309 806 2381 1056 
z
M 2431 1944 
Q 2422 2325 2234 2523 
Q 2047 2722 1778 2722 
Q 1491 2722 1303 2513 
Q 1116 2303 1119 1944 
L 2431 1944 
z
" transform="scale(0.015625)"/>
        <path id="Arial-BoldMT-63" d="M 3353 2338 
L 2488 2181 
Q 2444 2441 2289 2572 
Q 2134 2703 1888 2703 
Q 1559 2703 1364 2476 
Q 1169 2250 1169 1719 
Q 1169 1128 1367 884 
Q 1566 641 1900 641 
Q 2150 641 2309 783 
Q 2469 925 2534 1272 
L 3397 1125 
Q 3263 531 2881 228 
Q 2500 -75 1859 -75 
Q 1131 -75 698 384 
Q 266 844 266 1656 
Q 266 2478 700 2936 
Q 1134 3394 1875 3394 
Q 2481 3394 2839 3133 
Q 3197 2872 3353 2338 
z
" transform="scale(0.015625)"/>
        <path id="Arial-BoldMT-30" d="M 1756 4600 
Q 2422 4600 2797 4125 
Q 3244 3563 3244 2259 
Q 3244 959 2794 391 
Q 2422 -78 1756 -78 
Q 1088 -78 678 436 
Q 269 950 269 2269 
Q 269 3563 719 4131 
Q 1091 4600 1756 4600 
z
M 1756 3872 
Q 1597 3872 1472 3770 
Q 1347 3669 1278 3406 
Q 1188 3066 1188 2259 
Q 1188 1453 1269 1151 
Q 1350 850 1473 750 
Q 1597 650 1756 650 
Q 1916 650 2041 751 
Q 2166 853 2234 1116 
Q 2325 1453 2325 2259 
Q 2325 3066 2244 3367 
Q 2163 3669 2039 3770 
Q 1916 3872 1756 3872 
z
" transform="scale(0.015625)"/>
       </defs>
       <use xlink:href="#Arial-BoldMT-43"/>
       <use xlink:href="#Arial-BoldMT-6f" transform="translate(72.216797 0)"/>
       <use xlink:href="#Arial-BoldMT-6e" transform="translate(133.300781 0)"/>
       <use xlink:href="#Arial-BoldMT-6e" transform="translate(194.384766 0)"/>
       <use xlink:href="#Arial-BoldMT-65" transform="translate(255.46875 0)"/>
       <use xlink:href="#Arial-BoldMT-63" transform="translate(311.083984 0)"/>
       <use xlink:href="#Arial-BoldMT-74" transform="translate(366.699219 0)"/>
       <use xlink:href="#Arial-BoldMT-69" transform="translate(400 0)"/>
       <use xlink:href="#Arial-BoldMT-6f" transform="translate(427.783203 0)"/>
       <use xlink:href="#Arial-BoldMT-6e" transform="translate(488.867188 0)"/>
       <use xlink:href="#Arial-BoldMT-73" transform="translate(549.951172 0)"/>
       <use xlink:href="#Arial-BoldMT-3a" transform="translate(605.566406 0)"/>
       <use xlink:href="#Arial-BoldMT-20" transform="translate(638.867188 0)"/>
       <use xlink:href="#Arial-BoldMT-32" transform="translate(666.650391 0)"/>
       <use xlink:href="#Arial-BoldMT-30" transform="translate(722.265625 0)"/>
       <use xlink:href="#Arial-BoldMT-31" transform="translate(777.880859 0)"/>
      </g>
     </g>
    </g>
    <g id="ytick_3">
     <g id="line2d_3"/>
     <g id="text_3">
      <!-- Density: 0.027 -->
      <g style="fill: #262626" transform="translate(51.65 332.260566) scale(0.16 -0.16)">
       <defs>
        <path id="Arial-BoldMT-44" d="M 463 4581 
L 2153 4581 
Q 2725 4581 3025 4494 
Q 3428 4375 3715 4072 
Q 4003 3769 4153 3330 
Q 4303 2891 4303 2247 
Q 4303 1681 4163 1272 
Q 3991 772 3672 463 
Q 3431 228 3022 97 
Q 2716 0 2203 0 
L 463 0 
L 463 4581 
z
M 1388 3806 
L 1388 772 
L 2078 772 
Q 2466 772 2638 816 
Q 2863 872 3011 1006 
Q 3159 1141 3253 1448 
Q 3347 1756 3347 2288 
Q 3347 2819 3253 3103 
Q 3159 3388 2990 3547 
Q 2822 3706 2563 3763 
Q 2369 3806 1803 3806 
L 1388 3806 
z
" transform="scale(0.015625)"/>
        <path id="Arial-BoldMT-79" d="M 44 3319 
L 978 3319 
L 1772 963 
L 2547 3319 
L 3456 3319 
L 2284 125 
L 2075 -453 
Q 1959 -744 1854 -897 
Q 1750 -1050 1614 -1145 
Q 1478 -1241 1279 -1294 
Q 1081 -1347 831 -1347 
Q 578 -1347 334 -1294 
L 256 -606 
Q 463 -647 628 -647 
Q 934 -647 1081 -467 
Q 1228 -288 1306 -9 
L 44 3319 
z
" transform="scale(0.015625)"/>
        <path id="Arial-BoldMT-2e" d="M 459 0 
L 459 878 
L 1338 878 
L 1338 0 
L 459 0 
z
" transform="scale(0.015625)"/>
        <path id="Arial-BoldMT-37" d="M 272 3703 
L 272 4519 
L 3275 4519 
L 3275 3881 
Q 2903 3516 2518 2831 
Q 2134 2147 1932 1376 
Q 1731 606 1734 0 
L 888 0 
Q 909 950 1279 1937 
Q 1650 2925 2269 3703 
L 272 3703 
z
" transform="scale(0.015625)"/>
       </defs>
       <use xlink:href="#Arial-BoldMT-44"/>
       <use xlink:href="#Arial-BoldMT-65" transform="translate(72.216797 0)"/>
       <use xlink:href="#Arial-BoldMT-6e" transform="translate(127.832031 0)"/>
       <use xlink:href="#Arial-BoldMT-73" transform="translate(188.916016 0)"/>
       <use xlink:href="#Arial-BoldMT-69" transform="translate(244.53125 0)"/>
       <use xlink:href="#Arial-BoldMT-74" transform="translate(272.314453 0)"/>
       <use xlink:href="#Arial-BoldMT-79" transform="translate(305.615234 0)"/>
       <use xlink:href="#Arial-BoldMT-3a" transform="translate(361.230469 0)"/>
       <use xlink:href="#Arial-BoldMT-20" transform="translate(394.53125 0)"/>
       <use xlink:href="#Arial-BoldMT-30" transform="translate(422.314453 0)"/>
       <use xlink:href="#Arial-BoldMT-2e" transform="translate(477.929688 0)"/>
       <use xlink:href="#Arial-BoldMT-30" transform="translate(505.712891 0)"/>
       <use xlink:href="#Arial-BoldMT-32" transform="translate(561.328125 0)"/>
       <use xlink:href="#Arial-BoldMT-37" transform="translate(616.943359 0)"/>
      </g>
     </g>
    </g>
    <g id="ytick_4">
     <g id="line2d_4"/>
     <g id="text_4">
      <!-- Communities: 31 -->
      <g style="fill: #262626" transform="translate(30.3425 251.274434) scale(0.16 -0.16)">
       <defs>
        <path id="Arial-BoldMT-6d" d="M 394 3319 
L 1203 3319 
L 1203 2866 
Q 1638 3394 2238 3394 
Q 2556 3394 2790 3262 
Q 3025 3131 3175 2866 
Q 3394 3131 3647 3262 
Q 3900 3394 4188 3394 
Q 4553 3394 4806 3245 
Q 5059 3097 5184 2809 
Q 5275 2597 5275 2122 
L 5275 0 
L 4397 0 
L 4397 1897 
Q 4397 2391 4306 2534 
Q 4184 2722 3931 2722 
Q 3747 2722 3584 2609 
Q 3422 2497 3350 2280 
Q 3278 2063 3278 1594 
L 3278 0 
L 2400 0 
L 2400 1819 
Q 2400 2303 2353 2443 
Q 2306 2584 2207 2653 
Q 2109 2722 1941 2722 
Q 1738 2722 1575 2612 
Q 1413 2503 1342 2297 
Q 1272 2091 1272 1613 
L 1272 0 
L 394 0 
L 394 3319 
z
" transform="scale(0.015625)"/>
        <path id="Arial-BoldMT-75" d="M 2644 0 
L 2644 497 
Q 2463 231 2167 78 
Q 1872 -75 1544 -75 
Q 1209 -75 943 72 
Q 678 219 559 484 
Q 441 750 441 1219 
L 441 3319 
L 1319 3319 
L 1319 1794 
Q 1319 1094 1367 936 
Q 1416 778 1544 686 
Q 1672 594 1869 594 
Q 2094 594 2272 717 
Q 2450 841 2515 1023 
Q 2581 1206 2581 1919 
L 2581 3319 
L 3459 3319 
L 3459 0 
L 2644 0 
z
" transform="scale(0.015625)"/>
        <path id="Arial-BoldMT-33" d="M 241 1216 
L 1091 1319 
Q 1131 994 1309 822 
Q 1488 650 1741 650 
Q 2013 650 2198 856 
Q 2384 1063 2384 1413 
Q 2384 1744 2206 1937 
Q 2028 2131 1772 2131 
Q 1603 2131 1369 2066 
L 1466 2781 
Q 1822 2772 2009 2936 
Q 2197 3100 2197 3372 
Q 2197 3603 2059 3740 
Q 1922 3878 1694 3878 
Q 1469 3878 1309 3722 
Q 1150 3566 1116 3266 
L 306 3403 
Q 391 3819 561 4067 
Q 731 4316 1036 4458 
Q 1341 4600 1719 4600 
Q 2366 4600 2756 4188 
Q 3078 3850 3078 3425 
Q 3078 2822 2419 2463 
Q 2813 2378 3048 2084 
Q 3284 1791 3284 1375 
Q 3284 772 2843 347 
Q 2403 -78 1747 -78 
Q 1125 -78 715 280 
Q 306 638 241 1216 
z
" transform="scale(0.015625)"/>
       </defs>
       <use xlink:href="#Arial-BoldMT-43"/>
       <use xlink:href="#Arial-BoldMT-6f" transform="translate(72.216797 0)"/>
       <use xlink:href="#Arial-BoldMT-6d" transform="translate(133.300781 0)"/>
       <use xlink:href="#Arial-BoldMT-6d" transform="translate(222.216797 0)"/>
       <use xlink:href="#Arial-BoldMT-75" transform="translate(311.132812 0)"/>
       <use xlink:href="#Arial-BoldMT-6e" transform="translate(372.216797 0)"/>
       <use xlink:href="#Arial-BoldMT-69" transform="translate(433.300781 0)"/>
       <use xlink:href="#Arial-BoldMT-74" transform="translate(461.083984 0)"/>
       <use xlink:href="#Arial-BoldMT-69" transform="translate(494.384766 0)"/>
       <use xlink:href="#Arial-BoldMT-65" transform="translate(522.167969 0)"/>
       <use xlink:href="#Arial-BoldMT-73" transform="translate(577.783203 0)"/>
       <use xlink:href="#Arial-BoldMT-3a" transform="translate(633.398438 0)"/>
       <use xlink:href="#Arial-BoldMT-20" transform="translate(666.699219 0)"/>
       <use xlink:href="#Arial-BoldMT-33" transform="translate(694.482422 0)"/>
       <use xlink:href="#Arial-BoldMT-31" transform="translate(750.097656 0)"/>
      </g>
     </g>
    </g>
    <g id="ytick_5">
     <g id="line2d_5"/>
     <g id="text_5">
      <!-- Modularity: 0.435 -->
      <g style="fill: #262626" transform="translate(28.5575 170.335801) scale(0.16 -0.16)">
       <defs>
        <path id="Arial-BoldMT-4d" d="M 453 0 
L 453 4581 
L 1838 4581 
L 2669 1456 
L 3491 4581 
L 4878 4581 
L 4878 0 
L 4019 0 
L 4019 3606 
L 3109 0 
L 2219 0 
L 1313 3606 
L 1313 0 
L 453 0 
z
" transform="scale(0.015625)"/>
        <path id="Arial-BoldMT-64" d="M 3503 0 
L 2688 0 
L 2688 488 
Q 2484 203 2207 64 
Q 1931 -75 1650 -75 
Q 1078 -75 670 386 
Q 263 847 263 1672 
Q 263 2516 659 2955 
Q 1056 3394 1663 3394 
Q 2219 3394 2625 2931 
L 2625 4581 
L 3503 4581 
L 3503 0 
z
M 1159 1731 
Q 1159 1200 1306 963 
Q 1519 619 1900 619 
Q 2203 619 2415 876 
Q 2628 1134 2628 1647 
Q 2628 2219 2422 2470 
Q 2216 2722 1894 2722 
Q 1581 2722 1370 2473 
Q 1159 2225 1159 1731 
z
" transform="scale(0.015625)"/>
        <path id="Arial-BoldMT-6c" d="M 459 0 
L 459 4581 
L 1338 4581 
L 1338 0 
L 459 0 
z
" transform="scale(0.015625)"/>
        <path id="Arial-BoldMT-34" d="M 1994 0 
L 1994 922 
L 119 922 
L 119 1691 
L 2106 4600 
L 2844 4600 
L 2844 1694 
L 3413 1694 
L 3413 922 
L 2844 922 
L 2844 0 
L 1994 0 
z
M 1994 1694 
L 1994 3259 
L 941 1694 
L 1994 1694 
z
" transform="scale(0.015625)"/>
        <path id="Arial-BoldMT-35" d="M 284 1178 
L 1159 1269 
Q 1197 972 1381 798 
Q 1566 625 1806 625 
Q 2081 625 2272 848 
Q 2463 1072 2463 1522 
Q 2463 1944 2273 2155 
Q 2084 2366 1781 2366 
Q 1403 2366 1103 2031 
L 391 2134 
L 841 4519 
L 3163 4519 
L 3163 3697 
L 1506 3697 
L 1369 2919 
Q 1663 3066 1969 3066 
Q 2553 3066 2959 2641 
Q 3366 2216 3366 1538 
Q 3366 972 3038 528 
Q 2591 -78 1797 -78 
Q 1163 -78 763 262 
Q 363 603 284 1178 
z
" transform="scale(0.015625)"/>
       </defs>
       <use xlink:href="#Arial-BoldMT-4d"/>
       <use xlink:href="#Arial-BoldMT-6f" transform="translate(83.300781 0)"/>
       <use xlink:href="#Arial-BoldMT-64" transform="translate(144.384766 0)"/>
       <use xlink:href="#Arial-BoldMT-75" transform="translate(205.46875 0)"/>
       <use xlink:href="#Arial-BoldMT-6c" transform="translate(266.552734 0)"/>
       <use xlink:href="#Arial-BoldMT-61" transform="translate(294.335938 0)"/>
       <use xlink:href="#Arial-BoldMT-72" transform="translate(349.951172 0)"/>
       <use xlink:href="#Arial-BoldMT-69" transform="translate(388.867188 0)"/>
       <use xlink:href="#Arial-BoldMT-74" transform="translate(416.650391 0)"/>
       <use xlink:href="#Arial-BoldMT-79" transform="translate(449.951172 0)"/>
       <use xlink:href="#Arial-BoldMT-3a" transform="translate(505.566406 0)"/>
       <use xlink:href="#Arial-BoldMT-20" transform="translate(538.867188 0)"/>
       <use xlink:href="#Arial-BoldMT-30" transform="translate(566.650391 0)"/>
       <use xlink:href="#Arial-BoldMT-2e" transform="translate(622.265625 0)"/>
       <use xlink:href="#Arial-BoldMT-34" transform="translate(650.048828 0)"/>
       <use xlink:href="#Arial-BoldMT-33" transform="translate(705.664062 0)"/>
       <use xlink:href="#Arial-BoldMT-35" transform="translate(761.279297 0)"/>
      </g>
     </g>
    </g>
    <g id="ytick_6">
     <g id="line2d_6"/>
     <g id="text_6">
      <!-- Assortativity: -0.329 -->
      <g style="fill: #262626" transform="translate(7.2 89.373419) scale(0.16 -0.16)">
       <defs>
        <path id="Arial-BoldMT-41" d="M 4597 0 
L 3591 0 
L 3191 1041 
L 1359 1041 
L 981 0 
L 0 0 
L 1784 4581 
L 2763 4581 
L 4597 0 
z
M 2894 1813 
L 2263 3513 
L 1644 1813 
L 2894 1813 
z
" transform="scale(0.015625)"/>
        <path id="Arial-BoldMT-76" d="M 1372 0 
L 34 3319 
L 956 3319 
L 1581 1625 
L 1763 1059 
Q 1834 1275 1853 1344 
Q 1897 1484 1947 1625 
L 2578 3319 
L 3481 3319 
L 2163 0 
L 1372 0 
z
" transform="scale(0.015625)"/>
        <path id="Arial-BoldMT-2d" d="M 359 1222 
L 359 2100 
L 2084 2100 
L 2084 1222 
L 359 1222 
z
" transform="scale(0.015625)"/>
        <path id="Arial-BoldMT-39" d="M 291 1059 
L 1141 1153 
Q 1172 894 1303 769 
Q 1434 644 1650 644 
Q 1922 644 2112 894 
Q 2303 1144 2356 1931 
Q 2025 1547 1528 1547 
Q 988 1547 595 1964 
Q 203 2381 203 3050 
Q 203 3747 617 4173 
Q 1031 4600 1672 4600 
Q 2369 4600 2816 4061 
Q 3263 3522 3263 2288 
Q 3263 1031 2797 475 
Q 2331 -81 1584 -81 
Q 1047 -81 715 205 
Q 384 491 291 1059 
z
M 2278 2978 
Q 2278 3403 2083 3637 
Q 1888 3872 1631 3872 
Q 1388 3872 1227 3680 
Q 1066 3488 1066 3050 
Q 1066 2606 1241 2398 
Q 1416 2191 1678 2191 
Q 1931 2191 2104 2391 
Q 2278 2591 2278 2978 
z
" transform="scale(0.015625)"/>
       </defs>
       <use xlink:href="#Arial-BoldMT-41"/>
       <use xlink:href="#Arial-BoldMT-73" transform="translate(72.216797 0)"/>
       <use xlink:href="#Arial-BoldMT-73" transform="translate(127.832031 0)"/>
       <use xlink:href="#Arial-BoldMT-6f" transform="translate(183.447266 0)"/>
       <use xlink:href="#Arial-BoldMT-72" transform="translate(244.53125 0)"/>
       <use xlink:href="#Arial-BoldMT-74" transform="translate(283.447266 0)"/>
       <use xlink:href="#Arial-BoldMT-61" transform="translate(316.748047 0)"/>
       <use xlink:href="#Arial-BoldMT-74" transform="translate(372.363281 0)"/>
       <use xlink:href="#Arial-BoldMT-69" transform="translate(405.664062 0)"/>
       <use xlink:href="#Arial-BoldMT-76" transform="translate(433.447266 0)"/>
       <use xlink:href="#Arial-BoldMT-69" transform="translate(489.0625 0)"/>
       <use xlink:href="#Arial-BoldMT-74" transform="translate(516.845703 0)"/>
       <use xlink:href="#Arial-BoldMT-79" transform="translate(550.146484 0)"/>
       <use xlink:href="#Arial-BoldMT-3a" transform="translate(605.761719 0)"/>
       <use xlink:href="#Arial-BoldMT-20" transform="translate(639.0625 0)"/>
       <use xlink:href="#Arial-BoldMT-2d" transform="translate(666.845703 0)"/>
       <use xlink:href="#Arial-BoldMT-30" transform="translate(700.146484 0)"/>
       <use xlink:href="#Arial-BoldMT-2e" transform="translate(755.761719 0)"/>
       <use xlink:href="#Arial-BoldMT-33" transform="translate(783.544922 0)"/>
       <use xlink:href="#Arial-BoldMT-32" transform="translate(839.160156 0)"/>
       <use xlink:href="#Arial-BoldMT-39" transform="translate(894.775391 0)"/>
      </g>
     </g>
    </g>
   </g>
   <g id="patch_3">
    <path d="M 162.75 520.820284 
L 688.045 520.820284 
L 688.045 456.050378 
L 162.75 456.050378 
z
" clip-path="url(#pbad2f82e07)" style="fill: #add8e6; stroke: #000000; stroke-width: 1.5; stroke-linejoin: miter"/>
   </g>
   <g id="patch_4">
    <path d="M 162.75 439.857902 
L 688.045 439.857902 
L 688.045 375.087996 
L 162.75 375.087996 
z
" clip-path="url(#pbad2f82e07)" style="fill: #add8e6; stroke: #000000; stroke-width: 1.5; stroke-linejoin: miter"/>
   </g>
   <g id="patch_5">
    <path d="M 162.75 358.895519 
L 688.045 358.895519 
L 688.045 294.125613 
L 162.75 294.125613 
z
" clip-path="url(#pbad2f82e07)" style="fill: #add8e6; stroke: #000000; stroke-width: 1.5; stroke-linejoin: miter"/>
   </g>
   <g id="patch_6">
    <path d="M 162.75 277.933137 
L 688.045 277.933137 
L 688.045 213.163231 
L 162.75 213.163231 
z
" clip-path="url(#pbad2f82e07)" style="fill: #add8e6; stroke: #000000; stroke-width: 1.5; stroke-linejoin: miter"/>
   </g>
   <g id="patch_7">
    <path d="M 162.75 196.970754 
L 688.045 196.970754 
L 688.045 132.200848 
L 162.75 132.200848 
z
" clip-path="url(#pbad2f82e07)" style="fill: #add8e6; stroke: #000000; stroke-width: 1.5; stroke-linejoin: miter"/>
   </g>
   <g id="patch_8">
    <path d="M 162.75 116.008372 
L 688.045 116.008372 
L 688.045 51.238466 
L 162.75 51.238466 
z
" clip-path="url(#pbad2f82e07)" style="fill: #add8e6; stroke: #000000; stroke-width: 1.5; stroke-linejoin: miter"/>
   </g>
   <g id="patch_9">
    <path d="M 162.75 544.299375 
L 162.75 27.759375 
" style="fill: none; stroke: #cccccc; stroke-width: 1.5; stroke-linejoin: miter; stroke-linecap: square"/>
   </g>
   <g id="text_7">
    <!-- Network Statistics Summary -->
    <g style="fill: #262626" transform="translate(290.35375 21.759375) scale(0.2 -0.2)">
     <defs>
      <path id="Arial-BoldMT-4e" d="M 475 0 
L 475 4581 
L 1375 4581 
L 3250 1522 
L 3250 4581 
L 4109 4581 
L 4109 0 
L 3181 0 
L 1334 2988 
L 1334 0 
L 475 0 
z
" transform="scale(0.015625)"/>
      <path id="Arial-BoldMT-77" d="M 1078 0 
L 28 3319 
L 881 3319 
L 1503 1144 
L 2075 3319 
L 2922 3319 
L 3475 1144 
L 4109 3319 
L 4975 3319 
L 3909 0 
L 3066 0 
L 2494 2134 
L 1931 0 
L 1078 0 
z
" transform="scale(0.015625)"/>
      <path id="Arial-BoldMT-6b" d="M 428 0 
L 428 4581 
L 1306 4581 
L 1306 2150 
L 2334 3319 
L 3416 3319 
L 2281 2106 
L 3497 0 
L 2550 0 
L 1716 1491 
L 1306 1063 
L 1306 0 
L 428 0 
z
" transform="scale(0.015625)"/>
      <path id="Arial-BoldMT-53" d="M 231 1491 
L 1131 1578 
Q 1213 1125 1461 912 
Q 1709 700 2131 700 
Q 2578 700 2804 889 
Q 3031 1078 3031 1331 
Q 3031 1494 2936 1608 
Q 2841 1722 2603 1806 
Q 2441 1863 1863 2006 
Q 1119 2191 819 2459 
Q 397 2838 397 3381 
Q 397 3731 595 4036 
Q 794 4341 1167 4500 
Q 1541 4659 2069 4659 
Q 2931 4659 3367 4281 
Q 3803 3903 3825 3272 
L 2900 3231 
Q 2841 3584 2645 3739 
Q 2450 3894 2059 3894 
Q 1656 3894 1428 3728 
Q 1281 3622 1281 3444 
Q 1281 3281 1419 3166 
Q 1594 3019 2269 2859 
Q 2944 2700 3267 2529 
Q 3591 2359 3773 2064 
Q 3956 1769 3956 1334 
Q 3956 941 3737 597 
Q 3519 253 3119 86 
Q 2719 -81 2122 -81 
Q 1253 -81 787 320 
Q 322 722 231 1491 
z
" transform="scale(0.015625)"/>
     </defs>
     <use xlink:href="#Arial-BoldMT-4e"/>
     <use xlink:href="#Arial-BoldMT-65" transform="translate(72.216797 0)"/>
     <use xlink:href="#Arial-BoldMT-74" transform="translate(127.832031 0)"/>
     <use xlink:href="#Arial-BoldMT-77" transform="translate(161.132812 0)"/>
     <use xlink:href="#Arial-BoldMT-6f" transform="translate(238.916016 0)"/>
     <use xlink:href="#Arial-BoldMT-72" transform="translate(300 0)"/>
     <use xlink:href="#Arial-BoldMT-6b" transform="translate(338.916016 0)"/>
     <use xlink:href="#Arial-BoldMT-20" transform="translate(394.53125 0)"/>
     <use xlink:href="#Arial-BoldMT-53" transform="translate(422.314453 0)"/>
     <use xlink:href="#Arial-BoldMT-74" transform="translate(489.013672 0)"/>
     <use xlink:href="#Arial-BoldMT-61" transform="translate(522.314453 0)"/>
     <use xlink:href="#Arial-BoldMT-74" transform="translate(577.929688 0)"/>
     <use xlink:href="#Arial-BoldMT-69" transform="translate(611.230469 0)"/>
     <use xlink:href="#Arial-BoldMT-73" transform="translate(639.013672 0)"/>
     <use xlink:href="#Arial-BoldMT-74" transform="translate(694.628906 0)"/>
     <use xlink:href="#Arial-BoldMT-69" transform="translate(727.929688 0)"/>
     <use xlink:href="#Arial-BoldMT-63" transform="translate(755.712891 0)"/>
     <use xlink:href="#Arial-BoldMT-73" transform="translate(811.328125 0)"/>
     <use xlink:href="#Arial-BoldMT-20" transform="translate(866.943359 0)"/>
     <use xlink:href="#Arial-BoldMT-53" transform="translate(894.726562 0)"/>
     <use xlink:href="#Arial-BoldMT-75" transform="translate(961.425781 0)"/>
     <use xlink:href="#Arial-BoldMT-6d" transform="translate(1022.509766 0)"/>
     <use xlink:href="#Arial-BoldMT-6d" transform="translate(1111.425781 0)"/>
     <use xlink:href="#Arial-BoldMT-61" transform="translate(1200.341797 0)"/>
     <use xlink:href="#Arial-BoldMT-72" transform="translate(1255.957031 0)"/>
     <use xlink:href="#Arial-BoldMT-79" transform="translate(1294.873047 0)"/>
    </g>
   </g>
  </g>
 </g>
 <defs>
  <clipPath id="pbad2f82e07">
   <rect x="162.75" y="27.759375" width="525.295" height="516.54"/>
  </clipPath>
 </defs>
</svg>
